<svg version="1.2" xmlns="http://www.w3.org/2000/svg" viewBox="0 0 1000 300" width="1000" height="300"><style>.a{fill:#008df4}</style><path fill-rule="evenodd" class="a" d="m160.7 117.9h8.4c10.9 18.9 31.3 31.6 54.6 31.6 5.5 0 10.8-0.7 15.8-2v112.7c0 8.7-7 15.8-15.8 15.8-8.7 0-15.7-7.1-15.7-15.8v-69.6l-67 53.8h27.6c8.7 0 15.8 7 15.8 15.8 0 8.7-7.1 15.8-15.8 15.8h-70.9c-26.1 0-47.3-21.2-47.3-47.4v-110.5c0-7.9-5.9-14.7-13.7-15.7l-3.9-0.5c-8.6-1.1-14.8-9-13.7-17.6 1.1-8.7 8.9-14.9 17.6-13.8l3.8 0.5c23.7 3 41.5 23.2 41.5 47.1v42.2c16.9-25.6 45.8-42.4 78.7-42.4zm78.8 13.1c-4.9 1.7-10.2 2.7-15.8 2.7-13.9 0-26.5-6.1-35.2-15.8q-2.7-3.1-4.9-6.5c-4.5-7.4-7.1-16-7.1-25.2v-57.9c0-2.9 2.3-5.3 5.2-5.3h0.1c1.6 0 3.1 0.8 4.1 2.1l6.3 8.4 13.4 18 2.4 3.1h31.5l2.4-3.1 13.3-18 6.3-8.4c1-1.3 2.6-2.1 4.2-2.1h0.1c2.9 0 5.2 2.4 5.2 5.3v57.9c0 8.6-2.3 16.7-6.2 23.6-5.6 9.8-14.6 17.4-25.3 21.2zm-23.6-44.8c0-2-0.9-4.1-2.3-5.5-1.5-1.5-3.5-2.4-5.6-2.4-2.1 0-4.1 0.9-5.6 2.4-1.5 1.4-2.3 3.5-2.3 5.5 0 2.1 0.8 4.2 2.3 5.6 1.5 1.5 3.5 2.4 5.6 2.4 2.1 0 4.1-0.9 5.6-2.4 1.4-1.4 2.3-3.5 2.3-5.6zm23.6 8c2.1 0 4.1-0.9 5.6-2.4 1.4-1.4 2.3-3.5 2.3-5.6 0-2-0.9-4.1-2.3-5.5-1.5-1.5-3.5-2.4-5.6-2.4-2.1 0-4.1 0.9-5.6 2.4-1.5 1.4-2.3 3.5-2.3 5.5 0 2.1 0.8 4.2 2.3 5.6 1.5 1.5 3.5 2.4 5.6 2.4z"/><path class="a" d="m359.6 101q-2.8 0-4.8 2-2 1.8-2 4.8v32.4h78.6v18.6h-78.6v32.6q0 2.6 2 4.6 2 2 4.8 2h77.6v18.4h-83q-8 0-14.8-4-6.6-4-10.6-10.6-3.8-6.8-3.8-14.6v-75.2q0-8 3.8-14.8 4-6.8 10.8-10.6 6.8-4 14.6-4h83v18.4zm88 16.4h29.6l21.2 28 21.4-28h29.6l-36.2 47.6 38.6 50.6h-29.6l-23.8-31.2-23.6 31.2h-29.6l38.4-50.6zm112.2 39.4q0-10.8 5.4-19.8 5.4-9.2 14.4-14.4 9.2-5.2 19.6-5.2h25.4q7.8 0 14.4 4 6.8 4 10.8 10.8 4 6.8 4 14.6v1.4q0 7.6-4 14.4-3.8 6.6-10.6 10.8-6.6 4-14.6 4h-36.8v9.2q0 4.4 3.2 7.6 3.2 3.2 7.8 3.2h56.6v18.4h-56.2q-10.4 0-19.6-5-9-5-14.4-14-5.4-9-5.4-20.2zm28 2h28.2q4 0 6.8-2.8 3-3 3-7v-3q0-4.2-3-7-2.8-3-6.8-3h-17.2q-4.6 0-7.8 3.2-3.2 3.2-3.2 7.8zm149.2-41.4q7.8 0 14.6 4 7 4 11 10.8 4 6.8 4 14.8v68.8h-28v-73q0-2.8-2-4.8-2-2-4.8-2h-25.8q-2.8 0-4.8 2-1.8 2-1.8 4.8v73h-28v-68.8q0-8 4-14.8 4-6.8 10.6-10.8 6.8-4 14.6-4zm80.2 18.6q-2.8 0-4.8 2-1.8 2-1.8 4.8v48q0 2.8 1.8 4.8 2 1.8 4.8 1.8h56v18.4h-61.2q-8 0-14.8-3.8-6.8-4-10.8-10.6-3.8-6.8-3.8-14.8v-39.6q0-8 4-14.8 4-6.8 10.8-10.8 6.8-4 14.6-4h61.2v18.6zm68 20.8q0-10.8 5.4-19.8 5.4-9.2 14.4-14.4 9.2-5.2 19.6-5.2h25.4q7.8 0 14.4 4 6.8 4 10.8 10.8 4 6.8 4 14.6v1.4q0 7.6-4 14.4-3.8 6.6-10.6 10.8-6.6 4-14.6 4h-36.8v9.2q0 4.4 3.2 7.6 3.2 3.2 7.8 3.2h56.6v18.4h-56.2q-10.4 0-19.6-5-9-5-14.4-14-5.4-9-5.4-20.2zm28 2h28.2q4 0 6.8-2.8 3-3 3-7v-3q0-4.2-3-7-2.8-3-6.8-3h-17.2q-4.6 0-7.8 3.2-3.2 3.2-3.2 7.8z"/></svg>